<svg width="22" height="23" viewBox="0 0 22 23" fill="none" xmlns="http://www.w3.org/2000/svg">
<path d="M4.50811 0.0198934C4.47276 0.033909 3.47941 0.609266 2.301 1.29782C0.873184 2.13229 0.139836 2.5718 0.100596 2.61313C0.0670133 2.65356 0.0405003 2.69974 0.0231785 2.74969C-0.00633926 2.85104 -0.0084603 17.661 0.021411 17.7675C0.0321929 17.8089 0.0673668 17.8696 0.0991824 17.903C0.176247 17.9857 8.7007 22.9684 8.80427 22.9925C8.85235 23.0041 8.90626 23.0022 8.95982 22.9871C9.07612 22.9574 17.5783 17.9857 17.654 17.9045C17.6849 17.8694 17.7202 17.8089 17.7317 17.7677C17.7466 17.7187 17.752 16.9448 17.752 15.3141V12.9315L19.8247 11.7213C21.7788 10.579 21.8985 10.5075 21.9487 10.4291L22 10.3447V7.77822C22 4.98445 22.0053 5.14168 21.8966 5.0407C21.8674 5.01446 20.8717 4.42383 19.6818 3.72719L17.5205 2.46363H17.2803L15.1658 3.69808C14.0017 4.37873 13.0122 4.96074 12.964 4.99236C12.9159 5.0247 12.8585 5.08436 12.835 5.12766L12.7922 5.20259L12.7826 7.62028L12.7742 10.0389L11.028 11.0613C10.0675 11.6226 9.26808 12.0873 9.25111 12.0916C9.22017 12.1004 9.21805 11.8702 9.21805 7.42586V2.74808L9.1721 2.66776C9.11448 2.56983 9.37289 2.72597 6.77815 1.20978C4.60215 -0.062403 4.65446 -0.0358094 4.50811 0.0198934ZM6.50843 1.87192C7.41871 2.4029 8.16354 2.84223 8.16354 2.84762C8.16354 2.85319 7.36533 3.32217 6.38983 3.89214L4.61505 4.92803L2.84345 3.89232C1.87007 3.32217 1.07239 2.85319 1.07239 2.84762C1.07239 2.84205 1.86866 2.37325 2.84221 1.80454L4.60957 0.770983L4.73153 0.838546C5.32495 1.18115 5.91725 1.52561 6.50843 1.87192ZM19.176 4.25475C20.1343 4.81573 20.9272 5.27932 20.9347 5.28687C20.9548 5.30538 17.4396 7.35955 17.3915 7.3574C17.3434 7.35596 13.8714 5.32065 13.8728 5.29585C13.8746 5.26764 17.3678 3.2246 17.4031 3.23017C17.4192 3.23413 18.2174 3.69556 19.176 4.25475ZM2.56895 4.55123L4.25836 5.54005L4.26808 10.436L4.27692 15.3328L4.3181 15.3989C4.33967 15.4338 4.38032 15.4814 4.41001 15.5033C4.43794 15.524 5.37809 16.0686 6.49888 16.7115L8.53508 17.8806V19.9518C8.53508 21.0885 8.52748 22.0211 8.51793 22.0211C8.51069 22.0211 6.7504 20.997 4.60745 19.7434L0.711809 17.4658L0.706506 10.4642L0.703148 3.46467L0.789757 3.51336C0.839778 3.54031 1.63941 4.00714 2.56878 4.55105L2.56895 4.55123ZM8.53508 7.99762V12.5094L8.46668 12.5548C8.37388 12.6145 4.99047 14.5916 4.97898 14.5916C4.97368 14.5916 4.96944 12.5547 4.96944 10.0647L4.97156 5.53987L6.73909 4.50631C7.71106 3.9376 8.51263 3.47617 8.52218 3.47958C8.52907 3.48389 8.53508 5.51723 8.53508 7.99762ZM15.2782 6.95993L17.0498 7.99546V10.0482C17.0498 11.9956 17.0479 12.1002 17.0187 12.0889C16.9998 12.0815 16.1982 11.6145 15.2365 11.0514L13.4849 10.029V7.97696C13.4849 6.84727 13.4905 5.92422 13.4958 5.92422C13.5034 5.92422 14.3048 6.38996 15.2782 6.95993ZM21.3168 7.96384C21.3168 9.0876 21.3094 10.0144 21.302 10.0234C21.2892 10.0441 17.7853 12.0966 17.763 12.0966C17.7575 12.0966 17.752 11.1739 17.752 10.0441V7.99205L19.5196 6.95777C20.493 6.38996 21.2945 5.92422 21.302 5.92422C21.3113 5.92422 21.3168 6.84152 21.3168 7.96384ZM16.6549 12.7458L8.87993 17.2572L5.35388 15.2183C5.35388 15.2183 13.1211 10.6514 13.1522 10.6633L16.6549 12.7458ZM17.0465 15.4101L17.0404 17.466L13.1469 19.7437C11.0047 20.9972 9.24386 22.0213 9.23502 22.0213C9.22565 22.0213 9.21823 21.1843 9.21823 19.952V17.8807L13.1209 15.6181C15.2653 14.3742 17.0274 13.3559 17.0367 13.3537C17.0443 13.3537 17.0477 14.2787 17.0463 15.4099L17.0465 15.4101Z" fill="#F0513F"/>
</svg>
