<svg width="32" height="21" viewBox="0 0 32 21" fill="none" xmlns="http://www.w3.org/2000/svg">
<path d="M26.7665 0.18866C27.8594 0.440095 28.8524 1.01021 29.6188 1.82629C30.0402 2.26834 30.4071 2.75887 30.7119 3.28749C30.7261 3.34502 28.7437 4.672 27.5415 5.41219C27.4979 5.4416 27.3247 5.25367 27.1284 4.96475C26.9091 4.58829 26.5975 4.27349 26.2227 4.04988C25.8479 3.82627 25.4222 3.70119 24.9856 3.68636C23.6038 3.59175 22.7133 4.31277 22.7197 5.5183C22.7078 5.81447 22.7756 6.10843 22.9161 6.36971C23.2201 6.99613 23.7847 7.37197 25.5579 8.13773C28.822 9.53758 30.2231 10.4606 31.0879 11.7722C31.5765 12.601 31.8775 13.5262 31.9697 14.483C32.0619 15.4399 31.9431 16.4052 31.6216 17.3115C31.18 18.3057 30.4792 19.1639 29.592 19.7967C28.7047 20.4296 27.6635 20.8141 26.5766 20.9102C25.4214 21.0409 24.2544 21.0289 23.1021 20.8744C21.3372 20.5856 19.7114 19.7416 18.4625 18.4659C17.9909 17.9363 17.5914 17.3469 17.2744 16.7132C17.4084 16.6157 17.5485 16.5268 17.694 16.4473C17.8967 16.3323 18.664 15.8925 19.3876 15.4745L20.7015 14.7074L20.9761 15.1063C21.4393 15.7646 22.0278 16.3258 22.7082 16.758C23.396 17.1338 24.175 17.3119 24.9584 17.2724C25.7419 17.2329 26.4989 16.9774 27.145 16.5342C27.4783 16.2106 27.6867 15.7803 27.7336 15.3189C27.7805 14.8575 27.663 14.3944 27.4016 14.0107C27.0475 13.5057 26.3239 13.0813 24.2671 12.1928C22.6544 11.651 21.1854 10.7529 19.9701 9.5657C19.3918 8.90825 18.9645 8.13298 18.7179 7.29399C18.5355 6.33802 18.5087 5.35906 18.6383 4.39459C18.8794 3.28457 19.4574 2.27531 20.2938 1.50371C21.1302 0.732107 22.1845 0.235508 23.3138 0.0812754C24.4636 -0.0556207 25.6275 -0.0194211 26.7665 0.18866ZM16.0619 2.08452L16.076 3.94331H10.1355V20.7517H5.94625V3.94715H0.00566814V2.1216C-0.0100983 1.49642 0.00703268 0.870854 0.0569906 0.247466C0.0788027 0.218063 3.69063 0.204001 8.06972 0.211671L16.0388 0.233404L16.0619 2.08452Z" fill="#007ACC"/>
</svg>
