<svg width="32" height="23" viewBox="0 0 32 23" fill="none" xmlns="http://www.w3.org/2000/svg">
<path d="M19.8303 16.0842C20.2443 16.9312 20.8862 17.6432 21.6823 18.1384C22.4784 18.6336 23.3965 18.892 24.3313 18.8839C26.2218 18.8839 27.4297 17.9287 27.4297 16.6097C27.4297 15.0293 26.1885 14.4688 24.1087 13.5486L22.9674 13.0542C19.6757 11.6368 17.4879 9.86109 17.4879 6.10752C17.4879 2.64902 20.0957 0.0177507 24.17 0.0177507C25.4923 -0.0788574 26.8134 0.220404 27.9684 0.878152C29.1234 1.5359 30.061 2.52298 30.6641 3.71608L27.1111 6.0213C26.878 5.4303 26.4727 4.92483 25.9489 4.57186C25.425 4.21889 24.8075 4.03509 24.178 4.04481C23.9036 4.01712 23.6265 4.04746 23.3643 4.13391C23.1022 4.22036 22.8607 4.36102 22.6553 4.54694C22.4498 4.73286 22.285 4.95997 22.1711 5.2138C22.0573 5.46763 21.9971 5.74264 21.9942 6.0213C21.9942 7.40497 22.8421 7.9641 24.7939 8.82098L25.9352 9.31409C29.8122 10.9942 32 12.7066 32 16.5571C32 20.7082 28.7736 22.9824 24.4393 22.9824C22.7511 23.0901 21.0682 22.7022 19.5931 21.8656C18.118 21.029 16.9137 19.7792 16.1253 18.2669L19.8303 16.0842ZM3.71436 16.4884C4.43163 17.7738 5.08358 18.8597 6.64745 18.8597C8.14599 18.8597 9.09258 18.2669 9.09258 15.963V0.287209H13.6549V16.0277C13.6549 20.8011 10.8844 22.9743 6.8421 22.9743C5.41414 23.0528 3.99614 22.6924 2.7748 21.9406C1.55347 21.1888 0.586076 20.0809 0 18.7627L3.71436 16.4884Z" fill="#F5DE19"/>
</svg>
