<svg width="32" height="32" viewBox="0 0 32 32" fill="none" xmlns="http://www.w3.org/2000/svg">
<path d="M16 12C23.444 12 28 14.59 28 16C28 17.41 23.444 20 16 20C8.556 20 4 17.41 4 16C4 14.59 8.556 12 16 12ZM16 10C8.268 10 2 12.686 2 16C2 19.314 8.268 22 16 22C23.732 22 30 19.314 30 16C30 12.686 23.732 10 16 10Z" fill="#00BCD4"/>
<path d="M16 14C15.6044 14 15.2178 14.1173 14.8889 14.3371C14.56 14.5568 14.3036 14.8692 14.1522 15.2346C14.0009 15.6001 13.9613 16.0022 14.0384 16.3902C14.1156 16.7781 14.3061 17.1345 14.5858 17.4142C14.8655 17.6939 15.2219 17.8844 15.6098 17.9616C15.9978 18.0387 16.3999 17.9991 16.7654 17.8478C17.1308 17.6964 17.4432 17.44 17.6629 17.1111C17.8827 16.7822 18 16.3956 18 16C18 15.4696 17.7893 14.9609 17.4142 14.5858C17.0391 14.2107 16.5304 14 16 14Z" fill="#00BCD4"/>
<path d="M10.458 5.507C12.475 5.507 16.395 8.684 19.464 14C23.186 20.447 23.221 25.687 22 26.392C21.8592 26.465 21.7015 26.4995 21.543 26.492C19.526 26.492 15.605 23.316 12.536 18C8.81401 11.553 8.77901 6.313 10 5.608C10.1412 5.53479 10.2992 5.49929 10.458 5.507ZM10.457 3.508C9.94737 3.49878 9.44447 3.62545 9.00001 3.875C6.13001 5.532 6.93801 12.304 10.804 19C14.088 24.69 18.524 28.493 21.544 28.493C22.0535 28.5014 22.556 28.3741 23 28.124C25.87 26.468 25.062 19.696 21.196 13C17.912 7.31 13.476 3.507 10.456 3.507L10.457 3.508Z" fill="#00BCD4"/>
<path d="M21.543 5.507C21.7015 5.49947 21.8591 5.53397 22 5.607C23.221 6.313 23.186 11.553 19.464 18C16.394 23.316 12.474 26.493 10.457 26.493C10.2985 26.5005 10.1409 26.466 10 26.393C8.779 25.686 8.814 20.446 12.536 14C15.606 8.684 19.526 5.507 21.543 5.507ZM21.543 3.507C18.523 3.507 14.088 7.311 10.803 13C6.939 19.696 6.13 26.468 9 28.124C9.44427 28.3742 9.94718 28.5016 10.457 28.493C13.477 28.493 17.912 24.689 21.197 19C25.061 12.304 25.87 5.532 23 3.876C22.5557 3.62576 22.0528 3.49839 21.543 3.507Z" fill="#00BCD4"/>
</svg>
